<svg xmlns="http://www.w3.org/2000/svg" viewBox="0 0 64 64">
<style type="text/css">
	.st0{fill:#E64;stroke:#732;stroke-width:2;}
	.st1{fill:none;stroke:#fff;stroke-width:2;stroke-linecap:round;}
</style>
<circle class="st0" cx="32" cy="32" r="24"/>
	<line class="st1" x1="24" y1="20" x2="16" y2="20"/>
	<line class="st1" x1="20" y1="24" x2="16" y2="20"/>
	<line class="st1" x1="16" y1="28" x2="20" y2="24"/>
	<line class="st1" x1="24" y1="28" x2="16" y2="28"/>

	<line class="st1" x1="40" y1="44" x2="48" y2="36"/>
	<line class="st1" x1="40" y1="36" x2="48" y2="44"/>
	<line class="st1" x1="40" y1="32" x2="48" y2="32"/>

	<line class="st1" x1="20" y1="36" x2="32" y2="36"/>
	<path class="st1" d="M20,36c0,4.4,1.8,8,4,8"/>
	<path class="st1" d="M28,36c0,4.4-1.8,8-4,8"/>

	<path class="st1" d="M36,16c0,4.4,0,8,0,8"/>
	<path class="st1" d="M36,16c0,4.4,1.8,8,4,8"/>
	<path class="st1" d="M44,16c0,4.4-1.8,8-4,8"/>
</svg>
