<svg xmlns="http://www.w3.org/2000/svg" viewBox="0 0 216 216">
<g class="hover" fill="#b3b3e6" style="stroke:#19194d;stroke-width:8;stroke-linejoin:round">
	<path d="M191.14,60 L191.14,156 L159.96,78z
	M159.96,78 L191.14,156 L108,168z
	M191.14,60 L159.96,78 L108,12z
	M191.14,156 L108,204 L108,168z
	M108,12 L159.96,78 L56.04,78z
	M159.96,78 L108,168 L56.04,78z
	M108,168 L108,204 L24.86,156z
	M108,12 L56.04,78 L24.86,60z
	M56.04,78 L108,168 L24.86,156z
	M56.04,78 L24.86,156 L24.86,60z"/>
	</g>
</svg>